<?xml version="1.0" encoding="UTF-8"?>
<svg width="117px" height="92px" viewBox="0 0 117 92" version="1.1" xmlns="http://www.w3.org/2000/svg" xmlns:xlink="http://www.w3.org/1999/xlink">
    <title>مدارك</title>
    <g id="Page-1" stroke="none" stroke-width="1" fill="none" fill-rule="evenodd">
        <g id="مدارك" transform="translate(0.1788, 0.5156)" fill="#FFFFFF" fill-rule="nonzero">
            <path d="M115.873047,50.4492188 C115.873047,54.6132813 114.858724,59.1777344 112.830078,64.1425781 C110.000651,71.0292969 105.863281,76.2076823 100.417969,79.6777344 C88.3528646,87.3652344 69.5345052,91.2089844 43.9628906,91.2089844 C28.9615885,91.2089844 17.6705729,88.9134115 10.0898438,84.3222656 C3.36328125,80.264974 0,74.8463542 0,68.0664062 C0,64.2226562 1.54817708,59.578125 4.64453125,54.1328125 C7.10026042,49.8619792 9.66276042,46.3385417 12.3320312,43.5625 C17.4570313,38.2239583 26.078776,33.8730469 38.1972656,30.5097656 C48.7141927,27.6269531 58.6705729,26.1855469 68.0664062,26.1855469 C73.8320313,26.1855469 76.7148437,26.8528646 76.7148437,28.1875 C76.7148437,29.3619792 75.7272135,30.6565755 73.7519531,32.0712891 C71.7766927,33.4860026 70.7890625,34.6204427 70.7890625,35.4746094 C70.7890625,36.061849 71.9635417,36.9560547 74.3125,38.1572266 C76.6614583,39.3583984 77.8359375,41.1601563 77.8359375,43.5625 C77.8359375,46.8190104 75.59375,49.3548177 71.109375,51.1699219 C67.6927083,52.5579427 64.0358073,53.2519531 60.1386719,53.2519531 C55.4941406,53.2519531 53.171875,52.8515625 53.171875,52.0507813 C53.171875,51.4635417 55.734375,50.2089844 60.859375,48.2871094 C65.34375,46.578776 67.5859375,45.3776042 67.5859375,44.6835938 C67.5859375,44.4700521 66.7584635,43.9895833 65.1035156,43.2421875 C63.4485677,42.4947917 62.6210937,41.5071615 62.6210937,40.2792969 C62.6210937,38.0371094 64.0358073,34.8072917 66.8652344,30.5898438 C54.1061198,33.3125 43.6692708,36.515625 35.5546875,40.1992188 C27.9205729,43.6692708 22.7688802,46.2050781 20.0996094,47.8066406 C13.9602865,51.4902344 10.890625,54.8802083 10.890625,57.9765625 C10.890625,62.5677083 14.3339844,66.2513021 21.2207031,69.0273438 C28.8014323,72.1236979 39.7721354,73.671875 54.1328125,73.671875 C66.4114583,73.671875 78.2897135,71.7766927 89.7675781,67.9863281 C99.3235677,64.8365885 104.635417,62.1139323 105.703125,59.8183594 C105.970052,59.2311198 105.783203,56.3483073 105.142578,51.1699219 C102.419922,28.9082031 101.058594,18.6582031 101.058594,20.4199219 C101.058594,17.5371094 101.619141,13.8535156 102.740234,9.36914062 C104.235026,3.12304688 106.183594,0 108.585937,0 C109.707031,0 110.694661,2.82942708 111.548828,8.48828125 C112.082682,13.1328125 112.643229,17.7773437 113.230469,22.421875 C114.992187,34.1132813 115.873047,43.4557292 115.873047,50.4492188 Z" id="Path"></path>
        </g>
    </g>
</svg>